<?xml version="1.0" encoding="utf-8"?>
<!-- Generator: Adobe Illustrator 16.0.0, SVG Export Plug-In . SVG Version: 6.00 Build 0)  -->
<!DOCTYPE svg PUBLIC "-//W3C//DTD SVG 1.1//EN" "http://www.w3.org/Graphics/SVG/1.1/DTD/svg11.dtd">
<svg version="1.1" id="Calque_1" xmlns="http://www.w3.org/2000/svg" xmlns:xlink="http://www.w3.org/1999/xlink" x="0px" y="0px"
	 width="40px" height="40px" viewBox="0 0 60 60" enable-background="new 0 0 60 60" xml:space="preserve">
<g>
	<g>
		<path fill-rule="evenodd" clip-rule="evenodd" fill="#FFFFFF" d="M41.047,25.376c1.415,2.73,2.809,5.426,4.211,8.117
			c0.195,0.375,0.485,0.705,0.628,1.093c0.099,0.266,0.125,0.654-0.002,0.889c-0.654,1.202-2.593,3.192-3.829,3.995
			c-0.85-0.944-1.703-1.904-2.567-2.852c-2.344-2.574-4.703-5.134-7.032-7.72c-0.517-0.573-0.975-0.628-1.656-0.249
			c-1.831,1.021-3.704,1.966-5.56,2.938c-0.104,0.057-0.21,0.108-0.32,0.153c-0.916,0.39-1.675,0.271-2.039-0.318
			c-0.423-0.687-0.256-1.634,0.482-2.204c1.303-1.012,2.614-2.017,3.978-2.938c1.227-0.83,2.517-1.571,3.806-2.304
			c1.519-0.865,3.055-0.836,4.564,0.057c0.505,0.301,1.022,0.586,1.505,0.92C38.875,26.096,39.161,26.137,41.047,25.376z"/>
		<path fill-rule="evenodd" clip-rule="evenodd" fill="#FFFFFF" d="M50.676,33.279c-0.141,0.196-0.241,0.473-0.434,0.58
			c-0.716,0.401-1.462,0.758-2.204,1.109c-0.368,0.174-0.641,0.098-0.855-0.317c-1.703-3.308-3.428-6.598-5.148-9.894
			c-0.251-0.483-0.145-0.878,0.325-1.139c0.655-0.369,1.319-0.731,1.996-1.053c0.612-0.292,0.914,0.123,1.155,0.59
			c1.04,2.008,2.078,4.016,3.115,6.019c0.584,1.132,1.168,2.262,1.747,3.394C50.479,32.772,50.553,32.995,50.676,33.279z"/>
		<path fill-rule="evenodd" clip-rule="evenodd" fill="#FFFFFF" d="M17.963,23.616c-0.108,0.34-0.162,0.546-0.236,0.742
			c-1.173,3.107-2.338,6.214-3.525,9.312c-0.601,1.566-0.62,1.561-2.265,0.993c-1.706-0.585-1.703-0.581-1.066-2.271
			c1.147-3.038,2.287-6.08,3.435-9.119c0.384-1.019,0.573-1.102,1.569-0.755c0.488,0.168,0.996,0.3,1.46,0.524
			C17.594,23.166,17.778,23.442,17.963,23.616z"/>
		<path fill-rule="evenodd" clip-rule="evenodd" fill="#FFFFFF" d="M42.796,40.209c0.219,1.942-1.139,2.948-3.007,2.552
			c-0.472,0.687-0.818,1.415-1.366,1.935c-0.639,0.605-1.488,0.447-2.265,0.141c-0.76,2.12-1.796,2.786-3.229,2.076
			c0.125-0.47,0.327-0.751,0.915-0.685c0.586,0.067,0.953-0.346,1.177-0.848c0.293-0.662,0.21-1.291-0.264-1.844
			c-0.783-0.909-1.575-1.812-2.365-2.72c-0.107-0.124-0.284-0.243-0.301-0.379c-0.029-0.249,0.039-0.506,0.065-0.761
			c0.216,0.059,0.502,0.053,0.633,0.19c1.058,1.137,2.089,2.301,3.122,3.461c0.794,0.888,1.534,1.062,2.175,0.504
			c0.715-0.622,0.741-1.715,0.028-2.53c-0.852-0.974-1.733-1.923-2.599-2.888c-0.143-0.154-0.352-0.314-0.378-0.496
			c-0.034-0.233,0.08-0.488,0.133-0.735c0.213,0.065,0.5,0.06,0.627,0.201c1.128,1.23,2.228,2.489,3.336,3.74
			c1.075,1.21,1.863,1.141,2.761-0.203C42.166,40.664,42.467,40.496,42.796,40.209z"/>
		<path fill-rule="evenodd" clip-rule="evenodd" fill="#FFFFFF" d="M29.518,23.653c-0.376,0.355-0.72,0.485-1.27,0.354
			c-0.513-0.123-1.13-0.049-1.639,0.125c-0.705,0.242-1.363,0.632-2.019,0.999c-1.627,0.91-3.224,1.231-4.809-0.244
			c-0.12,0.257-0.215,0.43-0.286,0.614c-0.899,2.429-1.795,4.858-2.695,7.282c-0.141,0.372-0.252,0.775-0.477,1.087
			c-0.458,0.64-0.154,1.07,0.277,1.525c0.772,0.812,1.529,1.64,2.337,2.504c-0.239,0.187-0.44,0.342-0.753,0.583
			c-0.937-1.085-1.932-2.188-2.854-3.35c-0.173-0.215-0.168-0.704-0.058-0.996c1.157-3.11,2.352-6.204,3.537-9.305
			c0.432-1.132,0.946-1.236,1.841-0.411c0.549,0.509,1.235,0.757,1.958,0.502c0.794-0.279,1.534-0.708,2.316-1.021
			c0.845-0.34,1.692-0.702,2.574-0.899C28.223,22.844,28.937,23.089,29.518,23.653z"/>
		<path fill-rule="evenodd" clip-rule="evenodd" fill="#FFFFFF" d="M30.674,41.921c-0.258,0.425-0.446,0.915-0.788,1.259
			c-0.846,0.849-1.757,1.632-2.65,2.435c-0.73,0.654-1.371,0.711-1.943,0.194c-0.586-0.534-0.747-1.593-0.173-2.182
			c1.087-1.104,2.221-2.178,3.437-3.131C29.395,39.836,30.532,40.66,30.674,41.921z"/>
		<path fill-rule="evenodd" clip-rule="evenodd" fill="#FFFFFF" d="M21.918,42.049c0.234-0.411,0.4-0.887,0.718-1.221
			c0.645-0.68,1.371-1.285,2.067-1.915c0.708-0.644,1.378-0.716,1.944-0.221c0.595,0.519,0.741,1.646,0.167,2.239
			c-0.846,0.876-1.752,1.708-2.711,2.455c-0.279,0.22-0.87,0.227-1.236,0.097C22.301,43.283,22.042,42.751,21.918,42.049z"/>
		<path fill-rule="evenodd" clip-rule="evenodd" fill="#FFFFFF" d="M32.611,45.21c-0.201,0.385-0.354,0.804-0.614,1.144
			c-0.325,0.429-0.73,0.795-1.115,1.178c-0.566,0.566-1.155,0.678-1.708,0.346c-0.587-0.35-0.998-1.24-0.6-1.837
			c0.574-0.854,1.275-1.7,2.104-2.292C31.48,43.174,32.524,44.052,32.611,45.21z"/>
		<path fill-rule="evenodd" clip-rule="evenodd" fill="#FFFFFF" d="M22.06,39.634c0.012,0.883-0.945,2.016-1.822,1.998
			c-0.404-0.011-0.911-0.27-1.176-0.583c-0.437-0.517-0.446-1.227-0.048-1.77c0.317-0.437,0.786-0.835,1.274-1.054
			C21.141,37.843,22.045,38.61,22.06,39.634z"/>
	</g>
	<g>
		<path fill="#FFFFFF" d="M30.001,1.957c-3.488,0-6.317,2.829-6.317,6.315c0,3.489,2.829,6.316,6.317,6.316
			c3.489,0,6.314-2.827,6.314-6.316C36.315,4.786,33.49,1.957,30.001,1.957z M28.744,11.108L26.54,8.922l0.815-0.819
			c0,0,1.304,1.39,1.391,1.39c0.084,0,3.9-3.904,3.9-3.904l0.817,0.819L28.744,11.108z"/>
		<path fill="none" stroke="#FFFFFF" stroke-miterlimit="10" d="M37.443,9.133"/>
		<path fill="#FFFFFF" d="M30,57.916c-14.079,0-25.533-11.455-25.533-25.533c0-10.97,6.986-20.693,17.383-24.196l0.717,2.129
			C13.086,13.511,6.714,22.378,6.714,32.383C6.714,45.222,17.161,55.67,30,55.67c12.84,0,23.287-10.448,23.287-23.287
			c0-10.147-6.488-19.055-16.144-22.165l0.688-2.14C48.42,11.49,55.534,21.256,55.534,32.383C55.534,46.461,44.079,57.916,30,57.916
			z"/>
	</g>
</g>
</svg>
