<?xml version="1.0" encoding="utf-8"?>
<!-- Generator: Adobe Illustrator 16.0.0, SVG Export Plug-In . SVG Version: 6.00 Build 0)  -->
<!DOCTYPE svg PUBLIC "-//W3C//DTD SVG 1.1//EN" "http://www.w3.org/Graphics/SVG/1.1/DTD/svg11.dtd">
<svg version="1.1" id="Calque_1" xmlns="http://www.w3.org/2000/svg" xmlns:xlink="http://www.w3.org/1999/xlink" x="0px" y="0px"
	 width="40px" height="40px" viewBox="0 0 60 60" enable-background="new 0 0 60 60" xml:space="preserve">
<g>
	<path fill="#FFFFFF" d="M34.159,45.949c0.115-0.441,0.246-0.88,0.405-1.304l-0.246-0.036l-0.165,1.334L34.159,45.949z"/>
	<path fill="#FFFFFF" d="M6.239,53.465V3.011h36.422v33.922c0.848-0.267,1.729-0.44,2.626-0.533V0.38H3.608v55.722h32.258
		c-0.54-0.821-0.986-1.704-1.324-2.637H6.239z"/>
	<rect x="10.311" y="9.181" fill="#FFFFFF" width="17.554" height="2.631"/>
	<rect x="10.311" y="18.205" fill="#FFFFFF" width="27.417" height="3.304"/>
	<rect x="10.311" y="25.868" fill="#FFFFFF" width="27.417" height="3.287"/>
	<rect x="10.311" y="33.772" fill="#FFFFFF" width="27.417" height="3.298"/>
	<path fill="#FFFFFF" d="M45.186,37.559c-6.003,0.065-10.844,4.993-10.786,11c0.054,5.999,4.991,10.838,10.994,10.78
		c6.003-0.056,10.843-4.983,10.786-10.992C56.12,42.347,51.189,37.51,45.186,37.559z M47.266,54.694l-3.78,0.037l-0.042-4.435
		l-4.402,0.04l-0.031-3.775l4.394-0.039l-0.035-4.314l3.782-0.04l0.04,4.314l4.338-0.039l0.035,3.779l-4.338,0.042L47.266,54.694z"
		/>
</g>
</svg>
