<?xml version="1.0" encoding="utf-8"?>
<!-- Generator: Adobe Illustrator 16.0.0, SVG Export Plug-In . SVG Version: 6.00 Build 0)  -->
<!DOCTYPE svg PUBLIC "-//W3C//DTD SVG 1.1//EN" "http://www.w3.org/Graphics/SVG/1.1/DTD/svg11.dtd">
<svg version="1.1" id="Calque_1" xmlns="http://www.w3.org/2000/svg" xmlns:xlink="http://www.w3.org/1999/xlink" x="0px" y="0px"
	 width="40px" height="40px" viewBox="0 0 60 60" enable-background="new 0 0 60 60" xml:space="preserve">
<g>
	<g>
		<path fill="#FFFFFF" d="M56.33,51.32v7.721H3.67v-7.729c0-3.646,3.143-8.141,6.991-9.959l8.541-4.064l5.936,12.371l3.042-8.239
			c0.595,0.108,1.191,0.261,1.82,0.261c0.619,0,1.214-0.152,1.818-0.261l2.883,7.83l5.818-12.097l8.819,4.199
			C53.178,43.172,56.33,47.666,56.33,51.32L56.33,51.32z M11.44,24.234v-5.572c0-0.948,0.487-1.777,1.23-2.255
			C13.67,7.723,21.056,0.958,30,0.958c8.943,0,16.328,6.765,17.335,15.449c0.737,0.478,1.232,1.308,1.232,2.255v5.572
			c0,1.486-1.199,2.693-2.684,2.693c-1.483,0-2.683-1.207-2.683-2.693v-1.165C41.744,30.373,36.404,37.154,30,37.154
			c-6.396,0-11.745-6.782-13.195-14.085v1.165c0,1.209-0.805,2.215-1.895,2.559c1.073,3.629,3.438,6.773,6.715,8.835
			c0.603-0.202,1.367-0.169,2.105,0.218c1.188,0.621,1.793,1.819,1.341,2.683c-0.444,0.854-1.771,1.047-2.968,0.427
			c-0.87-0.452-1.425-1.215-1.485-1.936c-3.747-2.39-6.403-6.062-7.502-10.294C12.135,26.332,11.44,25.369,11.44,24.234
			L11.44,24.234z M14.5,15.778c0.084,0.009,0.16,0.009,0.233,0.042c0.194,0.067,0.335,0.21,0.436,0.367
			c0.58,0.253,1.041,0.706,1.327,1.268C17.292,10.036,23.026,6.104,30,6.104c6.973,0,12.708,3.932,13.495,11.351
			c0.395-0.771,1.141-1.325,2.037-1.444C44.367,8.468,37.854,2.676,30,2.676C22.221,2.676,15.757,8.351,14.5,15.778L14.5,15.778z
			 M14.5,15.778"/>
	</g>
</g>
</svg>
