<?xml version="1.0" encoding="utf-8"?>
<!-- Generator: Adobe Illustrator 16.0.0, SVG Export Plug-In . SVG Version: 6.00 Build 0)  -->
<!DOCTYPE svg PUBLIC "-//W3C//DTD SVG 1.1//EN" "http://www.w3.org/Graphics/SVG/1.1/DTD/svg11.dtd">
<svg version="1.1" id="Calque_1" xmlns="http://www.w3.org/2000/svg" xmlns:xlink="http://www.w3.org/1999/xlink" x="0px" y="0px"
	 width="40px" height="40px" viewBox="0 0 60 60" enable-background="new 0 0 60 60" xml:space="preserve">
<g>
	<path fill="#FFFFFF" d="M7.599,52.531V3.712h35.243v32.823c0.82-0.257,1.673-0.426,2.54-0.515V1.166H5.054v53.918h31.215
		c-0.522-0.795-0.956-1.649-1.283-2.553H7.599z"/>
	<rect x="11.54" y="9.683" fill="#FFFFFF" width="16.985" height="2.546"/>
	<rect x="11.54" y="18.415" fill="#FFFFFF" width="26.53" height="3.197"/>
	<rect x="11.54" y="25.829" fill="#FFFFFF" width="26.53" height="3.18"/>
	<rect x="11.54" y="33.477" fill="#FFFFFF" width="26.53" height="3.191"/>
	<path fill="#FFFFFF" d="M45.382,37.139c-5.82,0-10.538,4.718-10.538,10.54c0,5.821,4.718,10.539,10.538,10.539
		c5.823,0,10.541-4.718,10.541-10.539C55.923,41.856,51.205,37.139,45.382,37.139z M52.004,44.217l-7.473,9.057
		C44.267,53.59,43.877,54,43.462,54h-0.03h-0.065c-0.388,0-0.757-0.33-1.041-0.596l-4.328-4.161
		c-0.613-0.578-0.642-1.589-0.065-2.199c0.549-0.588,1.564-0.643,2.154-0.09l3.151,2.949l6.435-7.646
		c0.522-0.614,1.533-0.707,2.147-0.186c0.311,0.262,0.503,0.627,0.537,1.034C52.392,43.512,52.265,43.905,52.004,44.217z"/>
</g>
</svg>
