<svg width="23" height="24" fill="none" xmlns="http://www.w3.org/2000/svg">
  <g clip-path="url(#trans__clip0)">
    <path fill="#fff" d="M0 .5h24v24H0z"/>
    <path d="M11.99 6.524c.8 0 1.45-.677 1.45-1.512S12.79 3.5 11.99 3.5c-.802 0-1.451.677-1.451 1.512s.65 1.512 1.45 1.512zm1.41.275H9.07a.5.5 0 00-.5.5v5.633a.517.517 0 101.035 0l.16-4.84h.209v12.646a.763.763 0 001.525 0V16.94l.5.01v3.787a.763.763 0 001.525 0V16.97l.577-.036a3 3 0 00.846-.18l.228-.083-1.933-7.698 1.421 3.883a.517.517 0 10.972-.356l-2.04-5.571a.2.2 0 00-.196-.131z" fill="#B300FF"/>
  </g>
  <defs>
    <clipPath id="trans__clip0">
      <path fill="#fff" transform="translate(0 .5)" d="M0 0h23v23H0z"/>
    </clipPath>
  </defs>
</svg>
